<svg xmlns="http://www.w3.org/2000/svg" xmlns:xlink="http://www.w3.org/1999/xlink" width="803" zoomAndPan="magnify" viewBox="0 0 602.25 452.25" height="603" preserveAspectRatio="xMidYMid meet" version="1.0"><defs><g/><clipPath id="4aa56a3c63"><path d="M 264 66 L 395 66 L 395 177 L 264 177 Z M 264 66 " clip-rule="nonzero"/></clipPath><clipPath id="9283fa7757"><path d="M 253.589844 80.386719 L 381.664062 52.707031 L 403.492188 153.703125 L 275.414062 181.382812 Z M 253.589844 80.386719 " clip-rule="nonzero"/></clipPath><clipPath id="9af7968e2e"><path d="M 253.589844 80.386719 L 381.664062 52.707031 L 403.492188 153.703125 L 275.414062 181.382812 Z M 253.589844 80.386719 " clip-rule="nonzero"/></clipPath><clipPath id="2503dd7e27"><path d="M 371 268 L 468.894531 268 L 468.894531 305 L 371 305 Z M 371 268 " clip-rule="nonzero"/></clipPath><clipPath id="bf707f26ca"><path d="M 391 259.351562 L 441 259.351562 L 441 301 L 391 301 Z M 391 259.351562 " clip-rule="nonzero"/></clipPath><clipPath id="27c8f59c81"><path d="M 260.699219 339.039062 L 340.792969 339.039062 L 340.792969 355.109375 L 260.699219 355.109375 Z M 260.699219 339.039062 " clip-rule="nonzero"/></clipPath><clipPath id="885dc6cf24"><path d="M 260.710938 339.039062 L 340.769531 339.039062 L 340.769531 354.761719 L 260.710938 354.761719 Z M 260.710938 339.039062 " clip-rule="nonzero"/></clipPath><clipPath id="698b95fa5a"><path d="M 337.800781 339.039062 L 417.894531 339.039062 L 417.894531 355.109375 L 337.800781 355.109375 Z M 337.800781 339.039062 " clip-rule="nonzero"/></clipPath><clipPath id="1c17fda4b6"><path d="M 337.8125 339.039062 L 417.871094 339.039062 L 417.871094 354.761719 L 337.8125 354.761719 Z M 337.8125 339.039062 " clip-rule="nonzero"/></clipPath><clipPath id="e2135f1394"><path d="M 183.546875 339.039062 L 263.640625 339.039062 L 263.640625 355.109375 L 183.546875 355.109375 Z M 183.546875 339.039062 " clip-rule="nonzero"/></clipPath><clipPath id="5ca83ed17e"><path d="M 183.558594 339.039062 L 263.617188 339.039062 L 263.617188 354.761719 L 183.558594 354.761719 Z M 183.558594 339.039062 " clip-rule="nonzero"/></clipPath><clipPath id="aae47f46c6"><path d="M 75.9375 339.035156 L 522.308594 339.035156 L 522.308594 448.207031 L 75.9375 448.207031 Z M 75.9375 339.035156 " clip-rule="nonzero"/></clipPath><clipPath id="5b4aeb60c9"><path d="M 299.347656 1.980469 C 175.960938 1.980469 75.9375 101.953125 75.9375 225.28125 C 75.9375 348.609375 175.960938 448.585938 299.347656 448.585938 C 422.730469 448.585938 522.753906 348.609375 522.753906 225.28125 C 522.753906 101.953125 422.730469 1.980469 299.347656 1.980469 Z M 299.347656 1.980469 " clip-rule="nonzero"/></clipPath><clipPath id="25a734ee20"><path d="M 106.191406 339.035156 L 492.761719 339.035156 L 492.761719 418.660156 L 106.191406 418.660156 Z M 106.191406 339.035156 " clip-rule="nonzero"/></clipPath><clipPath id="a86826e6f7"><path d="M 299.347656 32.210938 C 192.675781 32.210938 106.191406 118.648438 106.191406 225.277344 C 106.191406 331.90625 192.675781 418.34375 299.347656 418.34375 C 406.023438 418.34375 492.503906 331.90625 492.503906 225.277344 C 492.503906 118.648438 406.023438 32.210938 299.347656 32.210938 Z M 299.347656 32.210938 " clip-rule="nonzero"/></clipPath><clipPath id="ad8c22d5dc"><path d="M 75.9375 2.25 L 522.308594 2.25 L 522.308594 157.105469 L 75.9375 157.105469 Z M 75.9375 2.25 " clip-rule="nonzero"/></clipPath><clipPath id="47b1df9e0c"><path d="M 299.347656 2.25 C 175.960938 2.25 75.9375 102.226562 75.9375 225.554688 C 75.9375 348.882812 175.960938 448.859375 299.347656 448.859375 C 422.730469 448.859375 522.753906 348.882812 522.753906 225.554688 C 522.753906 102.226562 422.730469 2.25 299.347656 2.25 Z M 299.347656 2.25 " clip-rule="nonzero"/></clipPath><clipPath id="4ee81cac9b"><path d="M 106.191406 32.480469 L 492.761719 32.480469 L 492.761719 157.105469 L 106.191406 157.105469 Z M 106.191406 32.480469 " clip-rule="nonzero"/></clipPath><clipPath id="9d7d2f3d2d"><path d="M 299.347656 32.480469 C 192.675781 32.480469 106.191406 118.917969 106.191406 225.550781 C 106.191406 332.179688 192.675781 418.617188 299.347656 418.617188 C 406.023438 418.617188 492.503906 332.179688 492.503906 225.550781 C 492.503906 118.917969 406.023438 32.480469 299.347656 32.480469 Z M 299.347656 32.480469 " clip-rule="nonzero"/></clipPath></defs><g fill="#ffffff" fill-opacity="1"><g transform="translate(110.55708, 240.685403)"><g><path d="M 47 -36.183594 C 44.226562 -35.074219 43.53125 -32.996094 42.421875 -31.332031 C 35.628906 -22.320312 27.589844 -14.695312 17.882812 -8.734375 C 15.25 -7.070312 12.617188 -5.40625 8.871094 -5.128906 C 8.316406 -6.515625 7.625 -7.765625 7.488281 -9.148438 C 7.488281 -10.8125 7.765625 -12.476562 8.179688 -14.140625 C 9.980469 -19.964844 11.785156 -25.785156 13.726562 -31.609375 C 14.28125 -33.550781 15.390625 -35.492188 15.113281 -37.570312 C 10.398438 -39.234375 9.011719 -38.957031 6.933594 -35.492188 C 3.050781 -28.699219 0 -21.488281 -1.800781 -13.863281 C -1.941406 -13.03125 -2.078125 -12.199219 -2.21875 -11.367188 C -3.050781 -4.574219 -0.136719 -0.96875 6.792969 -0.691406 C 11.644531 -0.414062 15.941406 -1.664062 20.101562 -4.160156 C 29.667969 -10.121094 37.847656 -17.605469 43.949219 -27.3125 C 45.195312 -29.253906 46.167969 -31.332031 47 -33.550781 C 47.273438 -34.105469 47 -34.9375 47 -36.183594 Z M 17.746094 -50.601562 C 18.4375 -51.15625 18.992188 -51.710938 19.410156 -52.40625 C 20.378906 -54.484375 21.210938 -56.5625 22.460938 -59.058594 C 18.578125 -60.167969 15.25 -60.03125 12.0625 -58.226562 C 9.566406 -56.839844 8.734375 -53.652344 9.980469 -51.710938 C 11.644531 -49.214844 15.390625 -48.660156 17.746094 -50.601562 Z M 17.746094 -50.601562 "/></g></g></g><g fill="#ffffff" fill-opacity="1"><g transform="translate(147.15574, 240.685403)"><g><path d="M 68.070312 -66.824219 C 69.179688 -67.378906 70.289062 -67.792969 71.121094 -68.625 C 77.777344 -76.113281 84.570312 -83.597656 91.085938 -91.5 C 94.6875 -95.9375 97.183594 -101.066406 98.710938 -106.75 C 101.34375 -116.59375 97.460938 -123.25 87.480469 -125.746094 C 86.648438 -126.019531 85.816406 -126.160156 84.984375 -126.160156 C 79.300781 -126.714844 73.617188 -126.574219 68.070312 -125.191406 C 57.257812 -122.417969 47.273438 -117.84375 38.125 -111.878906 C 26.894531 -104.53125 16.496094 -96.214844 6.792969 -87.0625 C 3.742188 -84.152344 0.832031 -81.101562 -1.664062 -77.636719 C -3.605469 -75.003906 -4.992188 -71.8125 -6.238281 -68.765625 C -7.902344 -64.050781 -6.933594 -59.335938 -3.605469 -55.59375 C -1.109375 -52.820312 1.800781 -50.1875 4.851562 -48.246094 C 9.148438 -45.472656 13.726562 -43.117188 18.300781 -41.175781 C 27.449219 -37.15625 36.738281 -33.6875 45.890625 -29.808594 C 52.40625 -27.035156 59.058594 -24.121094 65.4375 -20.933594 C 68.765625 -19.132812 71.953125 -16.914062 74.726562 -14.417969 C 81.101562 -8.59375 82.351562 -0.96875 78.882812 6.933594 C 77.359375 10.535156 75.140625 12.617188 71.121094 13.585938 C 54.902344 17.328125 39.234375 23.152344 23.984375 29.945312 C 20.65625 31.472656 17.46875 32.996094 14.417969 34.796875 C 12.476562 36.046875 10.675781 37.710938 9.148438 39.371094 C 7.902344 40.757812 8.179688 42.839844 9.84375 43.808594 C 12.0625 44.917969 14.417969 46.027344 16.773438 46.167969 C 20.65625 46.582031 24.539062 46.722656 28.144531 46.027344 C 49.632812 42.007812 68.070312 32.300781 82.628906 16.082031 C 85.125 13.308594 87.617188 11.089844 91.640625 10.398438 C 90.253906 9.980469 89.421875 9.703125 88.171875 9.289062 C 88.589844 7.902344 89.003906 6.933594 89.421875 5.960938 C 93.71875 -4.4375 90.667969 -12.753906 83.042969 -18.855469 C 79.300781 -21.90625 75.140625 -24.675781 70.84375 -26.757812 C 63.355469 -30.5 55.453125 -33.828125 47.691406 -37.15625 C 40.34375 -40.34375 32.855469 -43.117188 25.648438 -46.582031 C 21.074219 -48.660156 16.496094 -51.296875 12.476562 -54.207031 C 5.960938 -59.199219 4.714844 -65.574219 8.734375 -72.644531 C 10.8125 -76.390625 13.449219 -79.714844 16.359375 -82.765625 C 25.925781 -92.75 36.460938 -101.484375 47.828125 -109.246094 C 54.625 -113.960938 61.972656 -117.703125 69.875 -120.199219 C 72.644531 -121.03125 75.558594 -121.722656 78.46875 -122 C 84.152344 -122.417969 87.894531 -118.949219 88.035156 -113.40625 C 88.171875 -111.046875 88.035156 -108.554688 87.203125 -106.472656 C 85.679688 -101.898438 84.015625 -97.324219 81.796875 -93.027344 C 79.023438 -87.757812 75.695312 -82.90625 72.785156 -77.777344 C 70.84375 -74.585938 69.042969 -71.257812 67.238281 -67.933594 C 67.515625 -67.515625 67.792969 -67.101562 68.070312 -66.824219 Z M 19.964844 41.175781 C 19.269531 39.925781 20.242188 39.234375 21.074219 38.679688 C 23.292969 37.015625 25.507812 35.351562 27.867188 34.105469 C 40.898438 27.035156 54.625 21.488281 68.625 16.914062 C 69.597656 16.636719 70.566406 16.359375 71.953125 16.082031 C 62.941406 29.667969 33.273438 43.808594 19.964844 41.175781 Z M 19.964844 41.175781 "/></g></g></g><g fill="#ffffff" fill-opacity="1"><g transform="translate(251.961461, 240.685403)"><g><path d="M 45.335938 -25.648438 C 46.167969 -30.085938 46.859375 -34.382812 47.414062 -38.820312 C 47.691406 -41.175781 46.445312 -42.285156 44.085938 -42.421875 C 42.285156 -42.5625 40.757812 -42.144531 39.371094 -40.898438 C 38.542969 -40.066406 37.570312 -39.234375 36.460938 -38.125 C 36.324219 -39.097656 36.046875 -39.648438 36.183594 -40.203125 C 36.601562 -45.058594 35.214844 -47 30.640625 -47.273438 C 28.558594 -47.414062 26.339844 -47.136719 24.539062 -46.304688 C 21.90625 -45.058594 19.269531 -43.53125 17.050781 -41.589844 C 8.59375 -33.550781 2.496094 -23.984375 -1.246094 -13.03125 C -1.941406 -11.089844 -2.21875 -8.871094 -2.355469 -6.792969 C -2.496094 -2.773438 -0.832031 -1.109375 3.328125 -0.96875 C 6.378906 -0.832031 9.289062 -1.941406 11.644531 -3.605469 C 14.835938 -5.960938 18.023438 -8.457031 20.933594 -11.230469 C 24.953125 -15.25 28.699219 -19.546875 32.578125 -23.707031 C 33.6875 -24.953125 34.9375 -26.0625 36.601562 -27.726562 C 36.738281 -26.0625 36.878906 -25.371094 36.878906 -24.539062 C 36.324219 -19.964844 35.769531 -15.390625 35.214844 -10.8125 C 34.660156 -4.992188 35.074219 0.691406 36.183594 6.238281 C 37.433594 11.644531 39.371094 12.894531 45.335938 12.617188 C 42.699219 10.953125 41.867188 8.457031 41.867188 5.683594 C 42.007812 0.136719 42.007812 -5.269531 42.5625 -10.8125 C 43.117188 -15.804688 44.503906 -20.65625 45.335938 -25.648438 Z M 5.128906 -5.546875 C 4.714844 -10.675781 6.933594 -14.28125 8.734375 -18.023438 C 14.558594 -29.253906 21.488281 -37.847656 28.003906 -41.867188 C 30.640625 -38.265625 27.171875 -33.828125 30.085938 -30.777344 C 24.261719 -20.65625 13.171875 -9.289062 5.128906 -5.546875 Z M 5.128906 -5.546875 "/></g></g></g><g fill="#ffffff" fill-opacity="1"><g transform="translate(301.314285, 240.685403)"><g><path d="M 84.015625 -21.765625 C 81.65625 -22.460938 79.160156 -23.292969 76.667969 -23.429688 C 68.347656 -23.84375 60.308594 -21.765625 52.40625 -19.269531 C 50.878906 -18.855469 49.492188 -17.882812 47.550781 -18.578125 C 47.691406 -20.796875 48.105469 -22.875 48.105469 -24.953125 C 48.105469 -27.867188 48.246094 -30.917969 47.828125 -33.828125 C 47 -38.957031 43.808594 -41.453125 38.542969 -41.589844 C 34.796875 -41.867188 31.472656 -40.621094 28.835938 -37.988281 C 25.648438 -34.796875 22.460938 -31.609375 20.242188 -27.867188 C 15.941406 -21.351562 12.339844 -14.417969 8.59375 -7.488281 C 7.210938 -4.992188 5.960938 -2.355469 4.574219 0.277344 C 4.296875 0.277344 4.160156 0.136719 3.882812 0.136719 C 4.4375 -1.941406 4.851562 -3.882812 5.40625 -5.824219 C 7.902344 -15.941406 10.535156 -25.925781 13.03125 -35.90625 C 13.585938 -38.125 13.585938 -40.621094 13.726562 -42.839844 C 13.726562 -43.53125 12.894531 -44.503906 12.199219 -44.640625 C 11.644531 -44.78125 10.535156 -44.085938 10.257812 -43.53125 C 9.011719 -40.621094 7.765625 -37.710938 6.792969 -34.796875 C -3.882812 -2.496094 -14.417969 29.808594 -25.09375 62.109375 C -27.171875 68.765625 -29.113281 75.558594 -31.054688 82.210938 C -31.609375 83.738281 -32.164062 85.402344 -30.917969 86.925781 C -25.371094 88.035156 -25.09375 87.894531 -23.152344 83.320312 C -22.320312 81.65625 -21.628906 79.855469 -20.933594 78.054688 C -11.644531 56.285156 -2.496094 34.519531 7.070312 12.894531 C 12.339844 0.691406 18.4375 -11.230469 25.648438 -22.460938 C 28.421875 -26.894531 31.886719 -30.917969 35.214844 -35.074219 C 35.90625 -35.90625 37.15625 -36.324219 38.679688 -37.15625 C 39.371094 -35.214844 40.203125 -33.6875 40.621094 -32.023438 C 41.453125 -28.144531 41.589844 -24.121094 41.175781 -20.101562 C 40.898438 -16.21875 39.648438 -13.449219 36.046875 -11.507812 C 31.332031 -8.871094 27.3125 -5.40625 24.121094 -1.109375 C 22.875 0.414062 21.765625 2.496094 21.210938 4.4375 C 20.519531 6.792969 21.90625 8.59375 24.261719 9.011719 C 27.589844 9.703125 30.5 8.734375 32.996094 6.378906 C 36.460938 3.050781 39.511719 -0.832031 41.730469 -5.128906 C 43.394531 -8.316406 45.75 -10.535156 48.800781 -12.199219 C 56.285156 -16.21875 64.050781 -19.269531 72.507812 -20.933594 C 76.527344 -21.765625 80.410156 -21.90625 84.015625 -19.546875 C 84.292969 -19.410156 84.847656 -19.824219 85.539062 -19.964844 C 84.984375 -20.65625 84.570312 -21.628906 84.015625 -21.765625 Z M 30.363281 3.605469 C 31.054688 1.523438 31.886719 0.414062 33.6875 -0.277344 C 33.550781 1.800781 32.71875 2.773438 30.363281 3.605469 Z M 30.363281 3.605469 "/></g></g></g><g fill="#ffffff" fill-opacity="1"><g transform="translate(376.452692, 240.685403)"><g><path d="M 32.996094 -14.140625 C 30.363281 -13.308594 27.726562 -12.476562 24.816406 -13.585938 C 25.648438 -15.667969 26.339844 -17.605469 27.035156 -19.410156 C 28.699219 -23.984375 30.085938 -28.558594 30.222656 -33.410156 C 30.5 -39.648438 28.144531 -43.253906 23.707031 -43.808594 C 22.460938 -43.949219 21.210938 -43.808594 19.964844 -43.53125 C 16.082031 -42.699219 12.753906 -40.203125 9.703125 -36.878906 C 6.515625 -33.410156 4.160156 -29.390625 4.296875 -23.984375 C 2.773438 -21.488281 1.246094 -19.132812 -0.136719 -16.773438 C -1.664062 -13.726562 -3.1875 -10.535156 -3.742188 -6.933594 C -4.4375 -1.941406 -3.1875 1.386719 0.277344 2.496094 C 2.355469 3.1875 4.714844 3.1875 6.792969 2.773438 C 10.121094 2.21875 13.171875 0 15.941406 -2.773438 C 18.160156 -4.851562 20.378906 -7.070312 22.875 -9.566406 C 32.164062 -9.84375 33.273438 -10.121094 36.738281 -13.585938 C 34.660156 -14.835938 34.660156 -14.835938 32.996094 -14.140625 Z M 4.296875 -0.277344 C 2.910156 -0.136719 1.800781 -0.96875 1.800781 -2.910156 C 1.664062 -4.714844 1.800781 -6.65625 2.21875 -8.457031 C 3.1875 -12.0625 4.4375 -15.527344 6.65625 -18.855469 C 8.59375 -17.191406 9.980469 -15.804688 11.507812 -14.558594 C 13.03125 -13.449219 14.695312 -12.339844 16.359375 -11.230469 C 14.003906 -6.378906 7.902344 -0.96875 4.296875 -0.277344 Z M 19.546875 -15.527344 C 16.21875 -17.191406 14.140625 -19.546875 13.171875 -23.84375 C 12.617188 -26.339844 12.617188 -28.28125 13.726562 -30.5 C 16.082031 -34.9375 18.992188 -38.542969 22.875 -40.066406 C 24.675781 -39.097656 24.953125 -36.878906 24.953125 -34.796875 C 24.953125 -27.726562 23.015625 -21.351562 19.546875 -15.527344 Z M 19.546875 -15.527344 "/></g></g></g><g fill="#ffffff" fill-opacity="1"><g transform="translate(405.70384, 240.685403)"><g><path d="M 40.621094 -39.234375 C 39.648438 -42.839844 37.433594 -44.503906 33.6875 -44.226562 C 30.777344 -43.949219 28.421875 -42.839844 26.480469 -40.621094 C 23.015625 -36.460938 19.546875 -32.164062 15.941406 -28.003906 C 15.113281 -26.894531 14.140625 -25.785156 12.339844 -23.84375 C 12.894531 -31.472656 16.496094 -37.15625 16.914062 -43.949219 C 14.140625 -44.917969 12.476562 -44.503906 11.367188 -42.5625 C 10.535156 -41.3125 9.84375 -39.925781 9.289062 -38.679688 C 4.992188 -28.558594 0.691406 -18.4375 -3.605469 -8.316406 C -4.296875 -6.65625 -4.851562 -4.851562 -5.269531 -3.050781 C -5.960938 -0.136719 -4.574219 1.523438 -1.523438 1.523438 C 0.554688 1.523438 2.632812 0.96875 4.160156 -0.691406 C 5.960938 -2.355469 7.765625 -4.160156 9.289062 -6.238281 C 12.476562 -10.257812 15.25 -14.417969 18.300781 -18.4375 C 22.042969 -23.429688 25.925781 -28.421875 29.945312 -33.410156 C 30.777344 -34.519531 31.886719 -35.351562 33.410156 -36.601562 C 34.105469 -34.519531 34.660156 -32.996094 35.074219 -31.472656 C 35.492188 -30.222656 35.628906 -28.976562 36.324219 -27.867188 C 36.738281 -27.171875 37.847656 -26.480469 38.679688 -26.339844 C 39.097656 -26.339844 40.066406 -27.3125 40.34375 -28.003906 C 41.453125 -31.746094 41.453125 -35.492188 40.621094 -39.234375 Z M 40.621094 -39.234375 "/></g></g></g><g fill="#ffffff" fill-opacity="1"><g transform="translate(450.4818, 240.685403)"><g><path d="M 47 -36.183594 C 44.226562 -35.074219 43.53125 -32.996094 42.421875 -31.332031 C 35.628906 -22.320312 27.589844 -14.695312 17.882812 -8.734375 C 15.25 -7.070312 12.617188 -5.40625 8.871094 -5.128906 C 8.316406 -6.515625 7.625 -7.765625 7.488281 -9.148438 C 7.488281 -10.8125 7.765625 -12.476562 8.179688 -14.140625 C 9.980469 -19.964844 11.785156 -25.785156 13.726562 -31.609375 C 14.28125 -33.550781 15.390625 -35.492188 15.113281 -37.570312 C 10.398438 -39.234375 9.011719 -38.957031 6.933594 -35.492188 C 3.050781 -28.699219 0 -21.488281 -1.800781 -13.863281 C -1.941406 -13.03125 -2.078125 -12.199219 -2.21875 -11.367188 C -3.050781 -4.574219 -0.136719 -0.96875 6.792969 -0.691406 C 11.644531 -0.414062 15.941406 -1.664062 20.101562 -4.160156 C 29.667969 -10.121094 37.847656 -17.605469 43.949219 -27.3125 C 45.195312 -29.253906 46.167969 -31.332031 47 -33.550781 C 47.273438 -34.105469 47 -34.9375 47 -36.183594 Z M 17.746094 -50.601562 C 18.4375 -51.15625 18.992188 -51.710938 19.410156 -52.40625 C 20.378906 -54.484375 21.210938 -56.5625 22.460938 -59.058594 C 18.578125 -60.167969 15.25 -60.03125 12.0625 -58.226562 C 9.566406 -56.839844 8.734375 -53.652344 9.980469 -51.710938 C 11.644531 -49.214844 15.390625 -48.660156 17.746094 -50.601562 Z M 17.746094 -50.601562 "/></g></g></g><path fill="#ffffff" d="M 41.484375 327.164062 C 70.933594 311.9375 105.292969 308.433594 137.945312 307.632812 C 173.101562 306.730469 208.160156 309.035156 243.121094 312.238281 C 278.476562 315.542969 313.734375 319.652344 349.195312 322.15625 C 366.824219 323.359375 384.550781 324.058594 402.28125 324.160156 C 418.910156 324.257812 435.738281 324.359375 452.363281 322.355469 C 469.09375 320.351562 485.820312 315.644531 498.640625 304.125 C 509.859375 294.007812 517.972656 278.582031 514.867188 263.257812 C 513.566406 256.847656 503.550781 258.351562 503.550781 264.761719 C 503.648438 278.382812 498.339844 289.902344 487.824219 298.515625 C 476.003906 308.234375 460.175781 311.636719 445.453125 313.441406 C 411.996094 317.347656 377.941406 316.046875 344.386719 313.742188 C 276.273438 308.933594 208.363281 297.816406 139.949219 300.21875 C 105.089844 301.320312 69.832031 305.328125 39.484375 323.757812 C 37.277344 325.0625 39.183594 328.367188 41.484375 327.164062 Z M 41.484375 327.164062 " fill-opacity="1" fill-rule="nonzero"/><path fill="#ffffff" d="M 54.707031 304.925781 C 84.558594 294.007812 115.410156 291.40625 146.960938 291.203125 C 148.664062 291.203125 149.265625 288.300781 147.359375 288.097656 C 115.808594 283.390625 82.953125 290.902344 54.007812 303.625 C 53.40625 303.925781 53.90625 305.226562 54.707031 304.925781 Z M 54.707031 304.925781 " fill-opacity="1" fill-rule="nonzero"/><path fill="#ffffff" d="M 486.921875 322.457031 C 498.441406 320.855469 509.058594 315.34375 517.070312 307.03125 C 521.179688 302.824219 524.683594 298.015625 527.089844 292.707031 C 529.089844 288.5 532.796875 280.988281 529.792969 276.679688 C 528.390625 274.675781 525.984375 274.375 524.183594 275.980469 C 520.777344 278.882812 521.277344 285.496094 519.875 289.703125 C 518.273438 294.511719 515.96875 299.019531 513.066406 303.125 C 506.554688 312.039062 497.238281 318.550781 486.621094 321.453125 C 485.921875 321.554688 486.21875 322.554688 486.921875 322.457031 Z M 486.921875 322.457031 " fill-opacity="1" fill-rule="nonzero"/><g clip-path="url(#4aa56a3c63)"><g clip-path="url(#9283fa7757)"><g clip-path="url(#9af7968e2e)"><path fill="#ffffff" d="M 284.789062 104.046875 C 281.664062 104.96875 274.148438 107.710938 269.226562 113.785156 C 265.539062 118.339844 263.195312 124.695312 265.0625 133.476562 C 266.875 141.992188 271.828125 146.515625 277.28125 148.882812 C 283.453125 151.558594 290.367188 151.273438 293.933594 150.871094 C 295.132812 153.070312 296.246094 155.929688 297.136719 159.101562 C 298.105469 162.554688 298.796875 166.378906 298.988281 170.171875 L 299.300781 176.476562 L 304.363281 172.710938 C 309.867188 168.578125 320.78125 163.78125 332.796875 161.328125 C 335.8125 160.714844 338.898438 160.269531 341.992188 159.925781 C 344.0625 159.695312 346.109375 159.488281 348.171875 159.367188 C 350.828125 159.207031 353.398438 159.140625 356.007812 159.261719 C 358.761719 159.390625 361.363281 159.578125 364.023438 160.164062 C 361.757812 158.691406 359.464844 157.46875 356.90625 156.503906 C 354.375 155.550781 351.769531 154.933594 349.054688 154.492188 C 346.917969 154.144531 344.761719 153.976562 342.582031 153.9375 C 341.140625 153.914062 339.699219 153.984375 338.261719 154.097656 C 332.808594 154.527344 327.441406 155.683594 322.460938 157.125 C 315.730469 159.070312 309.71875 161.667969 305.144531 164.238281 C 304.773438 161.839844 304.257812 159.492188 303.636719 157.277344 C 302.25 152.347656 300.332031 148.082031 298.40625 145.304688 L 297.125 143.457031 L 294.929688 143.929688 C 294.929688 143.929688 286.839844 145.722656 279.917969 142.757812 C 276.136719 141.140625 272.765625 137.976562 271.472656 132.09375 C 270.082031 125.757812 271.609375 121.132812 274.25 117.824219 C 277.902344 113.25 283.429688 111.058594 286.0625 110.230469 C 286.328125 111.101562 286.628906 111.953125 286.964844 112.785156 C 289.648438 119.449219 294.25 124.613281 299.671875 126.488281 C 295.023438 123.816406 291.796875 118.289062 290.316406 111.742188 C 289.109375 106.394531 289.226562 100.414062 291.027344 94.726562 C 291.996094 91.648438 293.523438 88.714844 295.59375 85.992188 C 299.621094 80.710938 305.921875 76.421875 315.296875 74.507812 C 325.441406 72.382812 332.875 73.988281 338.265625 77.203125 C 348.878906 83.53125 351.527344 95.78125 351.527344 95.78125 L 352.402344 99.839844 L 356.328125 98.484375 C 356.328125 98.484375 366.613281 94.863281 375.558594 97.515625 C 380.546875 98.996094 385.015625 102.640625 386.71875 110.359375 C 388.371094 117.734375 386.652344 122.570312 383.511719 125.703125 C 380.925781 128.28125 377.53125 129.707031 374.597656 130.640625 C 371.796875 131.527344 369.371094 131.960938 368.242188 132.136719 C 368.355469 131.871094 368.460938 131.601562 368.558594 131.332031 C 369.074219 129.871094 369.394531 128.347656 369.480469 126.773438 C 369.539062 125.628906 369.523438 124.496094 369.332031 123.335938 C 368.921875 120.878906 368.039062 118.554688 366.554688 116.183594 C 366.78125 117.644531 366.800781 118.972656 366.753906 120.34375 C 366.6875 122.410156 366.246094 124.253906 365.65625 126.089844 C 365.273438 127.289062 364.761719 128.402344 364.222656 129.515625 C 363.863281 130.25 363.472656 130.964844 363.085938 131.679688 C 362.082031 133.535156 360.972656 135.296875 359.546875 136.859375 C 357.253906 139.375 354.625 141.46875 351.398438 142.742188 C 355.144531 142.554688 358.652344 141.445312 361.757812 139.480469 C 362.855469 138.789062 363.851562 137.972656 364.769531 137.066406 C 364.761719 139.375 365 141.699219 365.550781 144.050781 C 366.550781 148.324219 368.320312 152.496094 370.3125 156.804688 C 369.597656 152.257812 369.171875 147.90625 369.230469 143.648438 C 369.261719 141.625 369.429688 139.675781 369.804688 137.785156 C 371.394531 137.707031 373.734375 137.472656 376.335938 136.835938 C 380.289062 135.871094 384.75 133.878906 388.238281 130.550781 C 392.8125 126.183594 395.839844 119.414062 393.644531 108.863281 C 391.84375 100.332031 387.488281 95.371094 382.367188 92.527344 C 373.988281 87.875 363.167969 89.324219 357.597656 90.554688 C 355.75 85.492188 351.308594 76.378906 342.035156 70.871094 C 335.394531 66.929688 326.261719 64.742188 313.796875 67.40625 C 304.273438 69.472656 297.335938 73.550781 292.609375 78.710938 C 291.074219 80.390625 289.753906 82.171875 288.6875 84.050781 C 287.027344 86.972656 285.871094 90.074219 285.242188 93.238281 C 284.523438 96.847656 284.394531 100.515625 284.789062 104.046875 Z M 284.789062 104.046875 " fill-opacity="1" fill-rule="evenodd"/></g></g></g><g clip-path="url(#2503dd7e27)"><path fill="#ffffff" d="M 468.117188 281.230469 C 467.867188 281.894531 467.230469 282.394531 466.457031 282.449219 C 466.234375 282.449219 449.636719 283.554688 433.207031 291.4375 C 431.601562 292.214844 430.46875 293.652344 429.914062 295.339844 C 429.085938 297.910156 426.261719 299.570312 423.136719 301.339844 C 416.941406 304.882812 413.621094 305.214844 411.410156 304.742188 C 410.9375 304.632812 422.558594 298.410156 422.03125 297.496094 C 421.535156 296.613281 414.394531 300.648438 411.105469 302.726562 C 410.300781 303.222656 409.25 302.835938 408.945312 301.949219 C 408.726562 301.285156 409.003906 300.539062 409.636719 300.207031 C 412.652344 298.546875 420.34375 294.5625 419.847656 293.320312 C 419.347656 292.101562 408.613281 298.6875 408.613281 298.6875 C 408.613281 298.6875 407.8125 296.582031 411.269531 294.371094 C 417.078125 290.664062 422.558594 286.652344 425.683594 287.84375 C 427.285156 288.449219 430.605469 288.699219 432.015625 287.730469 C 450.414062 275.007812 468.835938 275.476562 468.199219 280.457031 C 468.199219 280.707031 468.199219 280.980469 468.117188 281.230469 Z M 418.378906 283.832031 C 414.867188 284.441406 411.546875 284.054688 409.085938 282.972656 C 407.453125 282.253906 405.628906 282.144531 403.996094 282.835938 C 387.148438 289.890625 375.308594 301.589844 375.144531 301.757812 C 374.589844 302.308594 373.816406 302.449219 373.125 302.199219 C 372.875 302.117188 372.597656 301.976562 372.433594 301.757812 C 368.558594 296.582031 382.058594 285.933594 401.753906 279.597656 C 403.46875 279.046875 404.632812 277.523438 405.269531 275.863281 C 406.484375 272.765625 410.605469 269.972656 415.835938 269.085938 C 422.527344 267.953125 428.53125 270.332031 429.222656 274.398438 C 429.941406 278.464844 425.074219 282.699219 418.378906 283.832031 Z M 425.847656 273.84375 C 424.796875 275.0625 423.664062 276.085938 422.417969 276.917969 C 421.171875 277.773438 419.816406 278.355469 418.433594 278.769531 C 416.96875 279.15625 415.503906 279.433594 414.007812 279.515625 C 412.515625 279.570312 410.964844 279.515625 409.417969 279.128906 C 410.71875 280.097656 412.347656 280.539062 413.980469 280.707031 C 415.613281 280.84375 417.273438 280.679688 418.851562 280.234375 C 420.453125 279.792969 421.976562 278.964844 423.191406 277.828125 C 424.382812 276.75 425.351562 275.394531 425.847656 273.84375 Z M 425.847656 273.84375 " fill-opacity="1" fill-rule="nonzero"/></g><g clip-path="url(#bf707f26ca)"><path fill="#ffffff" d="M 406.042969 290.222656 C 406.042969 291.464844 405.046875 292.460938 403.800781 292.460938 C 402.558594 292.460938 401.5625 291.464844 401.5625 290.222656 C 401.5625 288.976562 402.558594 287.980469 403.800781 287.980469 C 405.046875 287.980469 406.042969 288.976562 406.042969 290.222656 Z M 437.132812 270.609375 C 435.445312 270.609375 434.09375 271.964844 434.09375 273.652344 C 434.09375 275.339844 435.445312 276.695312 437.132812 276.695312 C 438.820312 276.695312 440.175781 275.339844 440.175781 273.652344 C 440.175781 271.964844 438.792969 270.609375 437.132812 270.609375 Z M 393.953125 267.039062 C 392.820312 267.039062 391.933594 267.953125 391.933594 269.058594 C 391.933594 270.167969 392.847656 271.078125 393.953125 271.078125 C 395.089844 271.078125 395.972656 270.167969 395.972656 269.058594 C 395.972656 267.953125 395.0625 267.039062 393.953125 267.039062 Z M 427.976562 259.433594 C 427.148438 259.433594 426.457031 260.125 426.457031 260.953125 C 426.457031 261.785156 427.148438 262.476562 427.976562 262.476562 C 428.808594 262.476562 429.5 261.785156 429.5 260.953125 C 429.5 260.125 428.808594 259.433594 427.976562 259.433594 Z M 394.949219 298.546875 C 394.398438 298.546875 393.925781 298.992188 393.925781 299.570312 C 393.925781 300.125 394.367188 300.59375 394.949219 300.59375 C 395.503906 300.59375 395.972656 300.152344 395.972656 299.570312 C 395.972656 298.992188 395.53125 298.546875 394.949219 298.546875 Z M 394.949219 298.546875 " fill-opacity="1" fill-rule="nonzero"/></g><g fill="#ffffff" fill-opacity="1"><g transform="translate(223.057394, 375.822049)"><g><path d="M 13.5 -8.90625 C 13.5 -8.050781 13.234375 -7.273438 12.703125 -6.578125 C 12.171875 -5.878906 11.5 -5.382812 10.6875 -5.09375 L 14.15625 0.015625 L 11.6875 0 L 8.453125 -4.8125 L 4.6875 -4.8125 L 4.6875 0 L 2.6875 0 L 2.6875 -12.953125 L 9.34375 -12.953125 C 10.070312 -12.953125 10.75 -12.773438 11.375 -12.421875 C 12.007812 -12.078125 12.519531 -11.601562 12.90625 -11 C 13.300781 -10.394531 13.5 -9.695312 13.5 -8.90625 Z M 8.875 -11.03125 L 4.6875 -11.03125 L 4.6875 -6.734375 L 9.125 -6.734375 C 9.550781 -6.734375 9.9375 -6.832031 10.28125 -7.03125 C 10.625 -7.238281 10.898438 -7.507812 11.109375 -7.84375 C 11.316406 -8.175781 11.421875 -8.535156 11.421875 -8.921875 C 11.421875 -9.328125 11.300781 -9.6875 11.0625 -10 C 10.832031 -10.320312 10.523438 -10.570312 10.140625 -10.75 C 9.753906 -10.9375 9.332031 -11.03125 8.875 -11.03125 Z M 8.875 -11.03125 "/></g></g></g><g fill="#ffffff" fill-opacity="1"><g transform="translate(239.184473, 375.822049)"><g><path d="M 2.6875 -12.953125 L 12.28125 -12.953125 L 12.28125 -11.03125 L 4.6875 -11.03125 L 4.6875 -7.609375 L 11.265625 -7.609375 L 11.265625 -5.671875 L 4.6875 -5.671875 L 4.6875 -1.921875 L 12.28125 -1.921875 L 12.28125 0 L 2.6875 0 Z M 2.6875 -12.953125 "/></g></g></g><g fill="#ffffff" fill-opacity="1"><g transform="translate(253.739529, 375.822049)"><g><path d="M 3.03125 -3.953125 C 3.675781 -3.203125 4.347656 -2.625 5.046875 -2.21875 C 5.742188 -1.8125 6.597656 -1.609375 7.609375 -1.609375 C 8.148438 -1.609375 8.671875 -1.675781 9.171875 -1.8125 C 9.671875 -1.957031 10.082031 -2.175781 10.40625 -2.46875 C 10.726562 -2.757812 10.890625 -3.117188 10.890625 -3.546875 C 10.890625 -4.171875 10.5625 -4.617188 9.90625 -4.890625 C 9.257812 -5.160156 8.34375 -5.378906 7.15625 -5.546875 C 5.695312 -5.773438 4.535156 -6.1875 3.671875 -6.78125 C 2.816406 -7.375 2.390625 -8.242188 2.390625 -9.390625 C 2.390625 -10.171875 2.617188 -10.835938 3.078125 -11.390625 C 3.546875 -11.953125 4.171875 -12.382812 4.953125 -12.6875 C 5.742188 -12.988281 6.613281 -13.140625 7.5625 -13.140625 C 8.75 -13.140625 9.773438 -12.941406 10.640625 -12.546875 C 11.503906 -12.148438 12.179688 -11.585938 12.671875 -10.859375 L 11.296875 -9.4375 C 10.890625 -10 10.363281 -10.457031 9.71875 -10.8125 C 9.082031 -11.164062 8.347656 -11.34375 7.515625 -11.34375 C 6.648438 -11.34375 5.925781 -11.179688 5.34375 -10.859375 C 4.769531 -10.546875 4.484375 -10.109375 4.484375 -9.546875 C 4.484375 -8.878906 4.789062 -8.40625 5.40625 -8.125 C 6.03125 -7.851562 6.847656 -7.632812 7.859375 -7.46875 C 8.523438 -7.375 9.160156 -7.242188 9.765625 -7.078125 C 10.378906 -6.921875 10.925781 -6.707031 11.40625 -6.4375 C 11.894531 -6.175781 12.28125 -5.84375 12.5625 -5.4375 C 12.84375 -5.03125 12.984375 -4.523438 12.984375 -3.921875 C 12.984375 -3.097656 12.757812 -2.375 12.3125 -1.75 C 11.875 -1.132812 11.242188 -0.65625 10.421875 -0.3125 C 9.597656 0.0195312 8.628906 0.1875 7.515625 0.1875 C 6.316406 0.1875 5.234375 -0.0078125 4.265625 -0.40625 C 3.304688 -0.800781 2.460938 -1.441406 1.734375 -2.328125 Z M 3.03125 -3.953125 "/></g></g></g><g fill="#ffffff" fill-opacity="1"><g transform="translate(268.49802, 375.822049)"><g><path d="M 5.671875 0 L 5.671875 -11.03125 L 1.3125 -11.03125 L 1.3125 -12.953125 L 12.140625 -12.953125 L 12.140625 -11.03125 L 7.671875 -11.03125 L 7.671875 0 Z M 5.671875 0 "/></g></g></g><g fill="#ffffff" fill-opacity="1"><g transform="translate(281.943417, 375.822049)"><g><path d="M 12.65625 0 L 11.265625 -3.109375 L 4.625 -3.109375 L 3.234375 0 L 1.171875 0 L 6.90625 -12.953125 L 9.109375 -12.953125 L 14.8125 0 Z M 6.9375 -8.359375 L 5.46875 -5.03125 L 10.421875 -5.03125 L 8.921875 -8.4375 C 8.578125 -9.195312 8.25 -10.007812 7.9375 -10.875 C 7.78125 -10.414062 7.617188 -9.976562 7.453125 -9.5625 C 7.285156 -9.144531 7.113281 -8.742188 6.9375 -8.359375 Z M 6.9375 -8.359375 "/></g></g></g><g fill="#ffffff" fill-opacity="1"><g transform="translate(297.922537, 375.822049)"><g><path d="M 14.359375 -12.96875 L 14.359375 -5.65625 C 14.359375 -4.550781 14.109375 -3.5625 13.609375 -2.6875 C 13.109375 -1.820312 12.410156 -1.140625 11.515625 -0.640625 C 10.628906 -0.140625 9.597656 0.109375 8.421875 0.109375 C 7.242188 0.109375 6.207031 -0.140625 5.3125 -0.640625 C 4.425781 -1.140625 3.734375 -1.820312 3.234375 -2.6875 C 2.734375 -3.5625 2.484375 -4.550781 2.484375 -5.65625 L 2.484375 -12.96875 L 4.484375 -12.96875 L 4.484375 -5.765625 C 4.484375 -5.003906 4.660156 -4.320312 5.015625 -3.71875 C 5.367188 -3.125 5.84375 -2.660156 6.4375 -2.328125 C 7.039062 -1.992188 7.703125 -1.828125 8.421875 -1.828125 C 9.179688 -1.828125 9.863281 -1.992188 10.46875 -2.328125 C 11.070312 -2.660156 11.550781 -3.125 11.90625 -3.71875 C 12.269531 -4.320312 12.453125 -5.003906 12.453125 -5.765625 L 12.453125 -12.96875 Z M 14.359375 -12.96875 "/></g></g></g><g fill="#ffffff" fill-opacity="1"><g transform="translate(314.752405, 375.822049)"><g><path d="M 13.5 -8.90625 C 13.5 -8.050781 13.234375 -7.273438 12.703125 -6.578125 C 12.171875 -5.878906 11.5 -5.382812 10.6875 -5.09375 L 14.15625 0.015625 L 11.6875 0 L 8.453125 -4.8125 L 4.6875 -4.8125 L 4.6875 0 L 2.6875 0 L 2.6875 -12.953125 L 9.34375 -12.953125 C 10.070312 -12.953125 10.75 -12.773438 11.375 -12.421875 C 12.007812 -12.078125 12.519531 -11.601562 12.90625 -11 C 13.300781 -10.394531 13.5 -9.695312 13.5 -8.90625 Z M 8.875 -11.03125 L 4.6875 -11.03125 L 4.6875 -6.734375 L 9.125 -6.734375 C 9.550781 -6.734375 9.9375 -6.832031 10.28125 -7.03125 C 10.625 -7.238281 10.898438 -7.507812 11.109375 -7.84375 C 11.316406 -8.175781 11.421875 -8.535156 11.421875 -8.921875 C 11.421875 -9.328125 11.300781 -9.6875 11.0625 -10 C 10.832031 -10.320312 10.523438 -10.570312 10.140625 -10.75 C 9.753906 -10.9375 9.332031 -11.03125 8.875 -11.03125 Z M 8.875 -11.03125 "/></g></g></g><g fill="#ffffff" fill-opacity="1"><g transform="translate(330.879484, 375.822049)"><g><path d="M 12.65625 0 L 11.265625 -3.109375 L 4.625 -3.109375 L 3.234375 0 L 1.171875 0 L 6.90625 -12.953125 L 9.109375 -12.953125 L 14.8125 0 Z M 6.9375 -8.359375 L 5.46875 -5.03125 L 10.421875 -5.03125 L 8.921875 -8.4375 C 8.578125 -9.195312 8.25 -10.007812 7.9375 -10.875 C 7.78125 -10.414062 7.617188 -9.976562 7.453125 -9.5625 C 7.285156 -9.144531 7.113281 -8.742188 6.9375 -8.359375 Z M 6.9375 -8.359375 "/></g></g></g><g fill="#ffffff" fill-opacity="1"><g transform="translate(346.858603, 375.822049)"><g><path d="M 13.390625 -12.953125 L 15.390625 -12.953125 L 15.390625 0 L 13.453125 0 L 4.34375 -10.0625 C 4.414062 -9.269531 4.488281 -8.484375 4.5625 -7.703125 C 4.644531 -6.929688 4.6875 -6.160156 4.6875 -5.390625 L 4.6875 0 L 2.6875 0 L 2.6875 -12.953125 L 4.59375 -12.953125 L 13.6875 -2.640625 C 13.613281 -3.242188 13.550781 -3.894531 13.5 -4.59375 C 13.457031 -5.289062 13.425781 -5.988281 13.40625 -6.6875 C 13.394531 -7.394531 13.390625 -8.0625 13.390625 -8.6875 Z M 13.390625 -12.953125 "/></g></g></g><g fill="#ffffff" fill-opacity="1"><g transform="translate(364.927585, 375.822049)"><g><path d="M 5.671875 0 L 5.671875 -11.03125 L 1.3125 -11.03125 L 1.3125 -12.953125 L 12.140625 -12.953125 L 12.140625 -11.03125 L 7.671875 -11.03125 L 7.671875 0 Z M 5.671875 0 "/></g></g></g><g fill="#ffffff" fill-opacity="1"><g transform="translate(242.592531, 399.411649)"><g><path d="M 9.234375 -12.953125 C 9.972656 -12.953125 10.644531 -12.773438 11.25 -12.421875 C 11.863281 -12.066406 12.351562 -11.585938 12.71875 -10.984375 C 13.082031 -10.390625 13.265625 -9.71875 13.265625 -8.96875 C 13.265625 -8.207031 13.070312 -7.515625 12.6875 -6.890625 C 12.3125 -6.265625 11.796875 -5.765625 11.140625 -5.390625 C 10.492188 -5.023438 9.789062 -4.84375 9.03125 -4.84375 L 4.6875 -4.84375 L 4.6875 0 L 2.6875 0 L 2.6875 -12.953125 Z M 8.921875 -6.765625 C 9.328125 -6.765625 9.703125 -6.863281 10.046875 -7.0625 C 10.390625 -7.269531 10.660156 -7.539062 10.859375 -7.875 C 11.066406 -8.207031 11.171875 -8.570312 11.171875 -8.96875 C 11.171875 -9.351562 11.066406 -9.695312 10.859375 -10 C 10.660156 -10.3125 10.390625 -10.5625 10.046875 -10.75 C 9.703125 -10.9375 9.328125 -11.03125 8.921875 -11.03125 L 4.6875 -11.03125 L 4.6875 -6.765625 Z M 8.921875 -6.765625 "/></g></g></g><g fill="#ffffff" fill-opacity="1"><g transform="translate(257.628436, 399.411649)"><g><path d="M 10.171875 0 L 2.546875 0 L 2.546875 -1.921875 L 5.359375 -1.921875 L 5.359375 -11.03125 L 2.546875 -11.03125 L 2.546875 -12.953125 L 10.171875 -12.953125 L 10.171875 -11.03125 L 7.359375 -11.03125 L 7.359375 -1.921875 L 10.171875 -1.921875 Z M 10.171875 0 "/></g></g></g><g fill="#ffffff" fill-opacity="1"><g transform="translate(270.371045, 399.411649)"><g><path d="M 12.84375 -12.953125 L 12.84375 -11.5 L 4.546875 -1.9375 L 13.046875 -1.9375 L 13.046875 0 L 1.515625 0 L 1.515625 -1.46875 L 9.828125 -11 L 2 -11 L 2 -12.953125 Z M 12.84375 -12.953125 "/></g></g></g><g fill="#ffffff" fill-opacity="1"><g transform="translate(284.889111, 399.411649)"><g><path d="M 12.84375 -12.953125 L 12.84375 -11.5 L 4.546875 -1.9375 L 13.046875 -1.9375 L 13.046875 0 L 1.515625 0 L 1.515625 -1.46875 L 9.828125 -11 L 2 -11 L 2 -12.953125 Z M 12.84375 -12.953125 "/></g></g></g><g fill="#ffffff" fill-opacity="1"><g transform="translate(299.407177, 399.411649)"><g><path d="M 2.6875 -12.953125 L 12.28125 -12.953125 L 12.28125 -11.03125 L 4.6875 -11.03125 L 4.6875 -7.609375 L 11.265625 -7.609375 L 11.265625 -5.671875 L 4.6875 -5.671875 L 4.6875 -1.921875 L 12.28125 -1.921875 L 12.28125 0 L 2.6875 0 Z M 2.6875 -12.953125 "/></g></g></g><g fill="#ffffff" fill-opacity="1"><g transform="translate(313.962233, 399.411649)"><g><path d="M 13.5 -8.90625 C 13.5 -8.050781 13.234375 -7.273438 12.703125 -6.578125 C 12.171875 -5.878906 11.5 -5.382812 10.6875 -5.09375 L 14.15625 0.015625 L 11.6875 0 L 8.453125 -4.8125 L 4.6875 -4.8125 L 4.6875 0 L 2.6875 0 L 2.6875 -12.953125 L 9.34375 -12.953125 C 10.070312 -12.953125 10.75 -12.773438 11.375 -12.421875 C 12.007812 -12.078125 12.519531 -11.601562 12.90625 -11 C 13.300781 -10.394531 13.5 -9.695312 13.5 -8.90625 Z M 8.875 -11.03125 L 4.6875 -11.03125 L 4.6875 -6.734375 L 9.125 -6.734375 C 9.550781 -6.734375 9.9375 -6.832031 10.28125 -7.03125 C 10.625 -7.238281 10.898438 -7.507812 11.109375 -7.84375 C 11.316406 -8.175781 11.421875 -8.535156 11.421875 -8.921875 C 11.421875 -9.328125 11.300781 -9.6875 11.0625 -10 C 10.832031 -10.320312 10.523438 -10.570312 10.140625 -10.75 C 9.753906 -10.9375 9.332031 -11.03125 8.875 -11.03125 Z M 8.875 -11.03125 "/></g></g></g><g fill="#ffffff" fill-opacity="1"><g transform="translate(330.089312, 399.411649)"><g><path d="M 10.171875 0 L 2.546875 0 L 2.546875 -1.921875 L 5.359375 -1.921875 L 5.359375 -11.03125 L 2.546875 -11.03125 L 2.546875 -12.953125 L 10.171875 -12.953125 L 10.171875 -11.03125 L 7.359375 -11.03125 L 7.359375 -1.921875 L 10.171875 -1.921875 Z M 10.171875 0 "/></g></g></g><g fill="#ffffff" fill-opacity="1"><g transform="translate(342.83192, 399.411649)"><g><path d="M 12.65625 0 L 11.265625 -3.109375 L 4.625 -3.109375 L 3.234375 0 L 1.171875 0 L 6.90625 -12.953125 L 9.109375 -12.953125 L 14.8125 0 Z M 6.9375 -8.359375 L 5.46875 -5.03125 L 10.421875 -5.03125 L 8.921875 -8.4375 C 8.578125 -9.195312 8.25 -10.007812 7.9375 -10.875 C 7.78125 -10.414062 7.617188 -9.976562 7.453125 -9.5625 C 7.285156 -9.144531 7.113281 -8.742188 6.9375 -8.359375 Z M 6.9375 -8.359375 "/></g></g></g><g clip-path="url(#27c8f59c81)"><path fill="#ffffff" d="M 260.699219 339.039062 L 340.792969 339.039062 L 340.792969 355.109375 L 260.699219 355.109375 Z M 260.699219 339.039062 " fill-opacity="1" fill-rule="nonzero"/></g><g clip-path="url(#885dc6cf24)"><path stroke-linecap="butt" transform="matrix(0.748758, 0, 0, 0.748758, 260.711843, 339.039323)" fill="none" stroke-linejoin="miter" d="M -0.00120918 -0.000348153 L 106.92061 -0.000348153 L 106.92061 21.451836 L -0.00120918 21.451836 Z M -0.00120918 -0.000348153 " stroke="#ffffff" stroke-width="4" stroke-opacity="1" stroke-miterlimit="4"/></g><g clip-path="url(#698b95fa5a)"><path fill="#9f0e0e" d="M 337.800781 339.039062 L 417.894531 339.039062 L 417.894531 355.109375 L 337.800781 355.109375 Z M 337.800781 339.039062 " fill-opacity="1" fill-rule="nonzero"/></g><g clip-path="url(#1c17fda4b6)"><path stroke-linecap="butt" transform="matrix(0.748758, 0, 0, 0.748758, 337.814053, 339.039323)" fill="none" stroke-linejoin="miter" d="M -0.00207397 -0.000348153 L 106.919745 -0.000348153 L 106.919745 21.451836 L -0.00207397 21.451836 Z M -0.00207397 -0.000348153 " stroke="#ffffff" stroke-width="4" stroke-opacity="1" stroke-miterlimit="4"/></g><g clip-path="url(#e2135f1394)"><path fill="#228031" d="M 183.546875 339.039062 L 263.640625 339.039062 L 263.640625 355.109375 L 183.546875 355.109375 Z M 183.546875 339.039062 " fill-opacity="1" fill-rule="nonzero"/></g><g clip-path="url(#5ca83ed17e)"><path stroke-linecap="butt" transform="matrix(0.748758, 0, 0, 0.748758, 183.559968, 339.039323)" fill="none" stroke-linejoin="miter" d="M -0.00183541 -0.000348153 L 106.919984 -0.000348153 L 106.919984 21.451836 L -0.00183541 21.451836 Z M -0.00183541 -0.000348153 " stroke="#ffffff" stroke-width="4" stroke-opacity="1" stroke-miterlimit="4"/></g><g clip-path="url(#aae47f46c6)"><g clip-path="url(#5b4aeb60c9)"><path stroke-linecap="butt" transform="matrix(1.067866, 0, 0, 1.067535, 75.93484, 1.980616)" fill="none" stroke-linejoin="miter" d="M 209.214355 -0.000137577 C 93.665523 -0.000137577 0.00249084 93.648035 0.00249084 209.17416 C 0.00249084 324.700284 93.665523 418.348457 209.214355 418.348457 C 324.752213 418.348457 418.418902 324.700284 418.418902 209.17416 C 418.418902 93.648035 324.752213 -0.000137577 209.214355 -0.000137577 Z M 209.214355 -0.000137577 " stroke="#ffffff" stroke-width="28" stroke-opacity="1" stroke-miterlimit="4"/></g></g><g clip-path="url(#25a734ee20)"><g clip-path="url(#a86826e6f7)"><path stroke-linecap="butt" transform="matrix(1.067866, 0, 0, 1.067535, 106.193479, 32.209901)" fill="none" stroke-linejoin="miter" d="M 180.878731 0.000971333 C 80.982471 0.000971333 -0.00194074 80.966592 -0.00194074 180.853585 C -0.00194074 280.736919 80.982471 361.702539 180.878731 361.702539 C 280.771333 361.702539 361.755744 280.736919 361.755744 180.853585 C 361.755744 80.966592 280.771333 0.000971333 180.878731 0.000971333 Z M 180.878731 0.000971333 " stroke="#ffffff" stroke-width="10" stroke-opacity="1" stroke-miterlimit="4"/></g></g><g clip-path="url(#ad8c22d5dc)"><g clip-path="url(#47b1df9e0c)"><path stroke-linecap="butt" transform="matrix(1.067866, 0, 0, 1.067535, 75.93484, 2.252705)" fill="none" stroke-linejoin="miter" d="M 209.214355 -0.00253363 C 93.665523 -0.00253363 0.00249084 93.649288 0.00249084 209.175399 C 0.00249084 324.697852 93.665523 418.349673 209.214355 418.349673 C 324.752213 418.349673 418.418902 324.697852 418.418902 209.175399 C 418.418902 93.649288 324.752213 -0.00253363 209.214355 -0.00253363 Z M 209.214355 -0.00253363 " stroke="#ffffff" stroke-width="28" stroke-opacity="1" stroke-miterlimit="4"/></g></g><g clip-path="url(#4ee81cac9b)"><g clip-path="url(#9d7d2f3d2d)"><path stroke-linecap="butt" transform="matrix(1.067866, 0, 0, 1.067535, 106.193479, 32.481991)" fill="none" stroke-linejoin="miter" d="M 180.878731 -0.00142588 C 80.982471 -0.00142588 -0.00194074 80.967844 -0.00194074 180.851167 C -0.00194074 280.73449 80.982471 361.70376 180.878731 361.70376 C 280.771333 361.70376 361.755744 280.73449 361.755744 180.851167 C 361.755744 80.967844 280.771333 -0.00142588 180.878731 -0.00142588 Z M 180.878731 -0.00142588 " stroke="#ffffff" stroke-width="10" stroke-opacity="1" stroke-miterlimit="4"/></g></g></svg>